<?xml version="1.0" encoding="UTF-8"?>
<svg xmlns="http://www.w3.org/2000/svg" viewBox="0 0 820 520" role="img" aria-label="O'zbekiston viloyatlari xaritasi — bolalar uchun" class="uz-map-svg uz-map-svg--kids">
  <defs>
    <pattern id="uz-suzani" width="32" height="32" patternUnits="userSpaceOnUse">
      <rect width="32" height="32" fill="#fff9f0"/>
      <circle cx="8" cy="8" r="2" fill="#e6821e" opacity="0.15"/>
      <circle cx="24" cy="24" r="2" fill="#0099B5" opacity="0.12"/>
      <path d="M0 16h32M16 0v32" stroke="#e8dcc8" stroke-width="0.4" opacity="0.4"/>
    </pattern>
    <filter id="mapSoftShadow" x="-2%" y="-2%" width="104%" height="104%">
      <feDropShadow dx="0" dy="3" stdDeviation="4" flood-color="#5b3a24" flood-opacity="0.12"/>
    </filter>
    
    <linearGradient id="grad-qoraqalpogiston" x1="0" y1="0" x2="0.3" y2="1">
      <stop offset="0%" stop-color="#b8e6f4"/>
      <stop offset="100%" stop-color="#7ec8e3"/>
    </linearGradient>
    <clipPath id="clip-qoraqalpogiston"><path class="uz-map-region" data-region="qoraqalpogiston" fill="#000" stroke="#7eb8cc" stroke-width="1.2" stroke-linejoin="round" d="M28.0,142.0 L28.0,114.8 L143.4,86.4 L161.3,97.0 L239.4,132.0 L246.3,138.3 L251.1,142.7 L253.8,145.2 L255.5,145.7 L256.9,152.2 L295.5,186.9 L307.4,197.1 L309.0,197.4 L312.2,198.1 L316.9,199.0 L297.3,228.3 L294.9,233.7 L291.8,243.4 L295.6,254.5 L297.2,257.0 L281.4,265.3 L289.7,274.1 L289.9,274.4 L292.7,277.3 L312.5,301.0 L313.0,301.4 L314.1,302.2 L315.4,303.1 L303.1,308.7 L299.8,305.9 L294.5,300.9 L290.8,297.3 L284.9,293.0 L280.4,292.1 L277.8,291.0 L275.1,290.8 L270.0,290.7 L268.9,290.6 L268.0,295.0 L268.9,297.5 L266.6,297.6 L263.2,295.0 L262.7,293.3 L258.0,290.9 L250.9,285.8 L250.9,285.6 L251.0,285.2 L250.9,285.0 L249.1,284.8 L249.4,283.2 L240.6,277.1 L237.3,276.0 L235.3,273.1 L235.4,271.9 L229.4,270.1 L229.1,267.0 L226.7,265.8 L226.4,265.3 L226.4,265.1 L226.6,262.6 L226.2,262.3 L225.5,261.6 L220.0,259.7 L217.8,260.6 L217.8,261.5 L215.8,262.9 L213.3,261.8 L212.7,263.7 L214.3,265.5 L214.1,265.6 L213.7,265.9 L213.2,266.4 L210.9,264.2 L207.4,263.4 L207.4,262.0 L205.0,262.5 L203.4,261.4 L202.5,260.0 L203.1,258.9 L207.2,259.8 L208.4,255.2 L204.0,252.7 L205.0,252.0 L204.8,250.9 L206.9,251.6 L206.8,249.3 L204.2,248.4 L201.4,245.0 L197.9,246.4 L189.0,245.2 L187.0,246.0 L181.0,245.5 L180.3,243.9 L175.3,242.1 L173.2,239.6 L173.7,238.8 L169.4,234.0 L162.3,234.1 L156.0,230.1 L145.1,221.1 L146.3,224.5 L144.4,225.6 L143.4,228.5 L138.1,228.8 L129.7,226.5 L124.1,229.6 L125.8,231.2 L130.8,233.1 L136.1,241.2 L140.4,244.1 L140.3,246.4 L137.2,245.3 L134.8,245.7 L135.0,243.2 L134.1,240.3 L131.6,238.0 L126.0,236.9 L123.1,238.2 L123.1,237.6 L123.3,236.4 L122.8,236.0 L118.9,235.2 L116.1,236.2 L115.7,239.0 L114.0,237.4 L113.4,237.5 L113.2,237.8 L112.9,239.0 L114.8,241.6 L114.1,247.3 L114.0,247.7 L113.6,248.0 L113.2,248.2 L110.3,247.7 L110.1,248.1 L109.7,249.0 L110.7,251.1 L106.1,251.5 L101.6,253.0 L95.0,252.2 L88.5,252.6 L83.2,255.0 L80.1,260.8 L79.5,261.4 L78.4,262.3 L72.8,264.5 L71.2,269.0 L71.4,275.4 L73.7,280.4 L74.0,286.3 L76.5,289.7 L79.2,289.3 L79.6,289.6 L79.7,290.0 L75.8,292.3 L74.5,295.1 L28.0,292.4 L28.0,291.7 L28.0,175.0 L28.0,142.0 Z"/></clipPath>
    <linearGradient id="grad-xorazm" x1="0" y1="0" x2="0.3" y2="1">
      <stop offset="0%" stop-color="#f2e8d4"/>
      <stop offset="100%" stop-color="#d4b896"/>
    </linearGradient>
    <clipPath id="clip-xorazm"><path class="uz-map-region" data-region="xorazm" fill="#000" stroke="#c4a86a" stroke-width="1.2" stroke-linejoin="round" d="M213.0,289.5 L212.1,288.7 L211.1,288.2 L210.4,287.9 L209.5,285.7 L210.3,283.7 L210.9,281.9 L210.9,281.7 L214.1,279.9 L214.1,278.5 L208.3,271.6 L210.4,268.7 L220.4,271.6 L220.6,271.4 L220.8,271.1 L220.8,270.7 L218.2,268.6 L213.6,266.8 L214.3,265.5 L212.6,263.0 L213.3,261.8 L216.2,262.8 L217.8,261.5 L217.8,260.6 L220.0,259.7 L226.6,262.6 L226.4,265.1 L226.4,265.3 L229.1,267.0 L229.4,270.1 L235.4,271.9 L235.3,273.1 L237.3,276.0 L240.6,277.1 L249.4,283.2 L249.1,284.8 L250.9,285.0 L251.0,285.2 L250.9,285.6 L250.9,285.8 L258.0,290.9 L262.7,293.3 L263.2,295.0 L266.1,297.3 L268.6,298.1 L265.5,300.7 L261.5,300.8 L256.5,298.6 L254.8,296.7 L254.6,296.9 L254.6,297.3 L254.5,297.5 L253.7,295.5 L253.1,295.9 L252.3,294.8 L252.1,297.1 L250.8,296.1 L240.4,295.3 L228.1,297.3 L213.0,289.5 Z M268.8,297.3 L269.0,293.9 L278.7,295.0 L279.8,296.6 L282.6,297.4 L290.1,302.5 L290.9,305.2 L293.7,306.5 L295.2,309.1 L294.7,315.7 L301.8,329.3 L302.3,329.5 L310.3,325.0 L314.7,320.9 L315.5,317.9 L315.5,316.7 L305.8,307.1 L303.1,308.7 L299.8,305.9 L294.5,300.9 L290.8,297.3 L284.9,293.0 L280.4,292.1 L277.8,291.0 L268.9,290.6 L268.0,295.0 L268.8,297.3 Z"/></clipPath>
    <linearGradient id="grad-navoiy" x1="0" y1="0" x2="0.3" y2="1">
      <stop offset="0%" stop-color="#dff0d4"/>
      <stop offset="100%" stop-color="#9ecf8a"/>
    </linearGradient>
    <clipPath id="clip-navoiy"><path class="uz-map-region" data-region="navoiy" fill="#000" stroke="#8fbf7a" stroke-width="1.2" stroke-linejoin="round" d="M289.7,274.1 L281.4,265.3 L281.5,264.8 L297.2,257.0 L295.6,254.5 L291.8,243.4 L294.9,233.7 L297.3,228.3 L316.9,199.0 L312.2,198.1 L309.0,197.4 L307.4,197.1 L295.5,186.9 L306.2,186.3 L355.5,179.9 L378.1,182.4 L408.3,183.8 L413.0,181.7 L416.7,180.0 L426.0,175.8 L429.1,176.8 L437.2,187.4 L451.1,195.3 L452.7,196.1 L453.9,197.4 L457.7,203.8 L462.0,211.3 L466.6,218.2 L477.9,214.3 L477.8,232.3 L476.7,243.3 L473.6,242.2 L473.5,262.6 L497.3,265.5 L500.6,284.0 L502.3,291.0 L505.1,300.9 L507.1,300.9 L507.4,301.9 L502.2,302.4 L502.4,306.4 L502.7,312.3 L508.0,312.8 L508.1,313.3 L508.3,315.0 L508.6,315.7 L507.8,316.5 L508.0,317.2 L508.2,319.6 L508.1,320.4 L505.4,326.4 L504.6,326.7 L504.5,328.4 L503.8,328.8 L503.4,329.0 L503.3,329.2 L502.7,332.3 L500.3,332.0 L499.3,329.7 L500.4,328.6 L498.8,328.1 L498.2,326.3 L497.1,326.0 L493.5,328.0 L489.6,327.9 L487.3,326.3 L487.1,326.3 L486.5,326.5 L484.4,326.5 L483.3,331.8 L483.6,332.5 L484.2,332.5 L484.2,332.7 L483.0,333.0 L482.2,334.4 L483.4,334.6 L482.9,336.2 L483.7,336.4 L479.5,348.3 L481.9,347.8 L481.9,348.2 L482.2,348.1 L482.3,348.4 L481.1,349.7 L481.3,351.7 L479.3,353.2 L476.9,354.5 L466.7,355.6 L465.8,354.7 L461.7,354.4 L458.8,353.1 L459.0,352.1 L457.9,350.8 L456.5,350.7 L452.7,347.8 L448.7,353.3 L450.8,354.6 L450.4,355.8 L450.2,355.8 L449.7,355.9 L449.4,355.8 L450.2,358.0 L449.6,360.8 L443.3,359.2 L440.9,361.5 L434.2,360.5 L435.7,363.4 L438.7,365.0 L439.1,366.4 L439.7,370.6 L437.4,375.4 L440.4,380.6 L435.2,381.9 L434.6,379.0 L432.9,376.3 L429.7,376.5 L430.0,371.1 L423.1,368.3 L421.7,369.8 L419.9,368.7 L420.3,368.1 L419.1,366.7 L414.7,364.4 L414.6,363.3 L411.6,360.1 L413.5,357.1 L419.0,353.6 L421.1,349.5 L424.7,348.0 L422.7,346.1 L424.0,343.1 L424.0,343.0 L423.6,342.8 L422.5,342.3 L423.2,339.0 L426.4,338.8 L426.6,338.9 L427.3,339.4 L429.4,340.7 L435.8,341.0 L436.2,340.0 L437.2,337.1 L437.4,336.3 L439.2,336.1 L440.2,330.4 L443.6,330.6 L445.7,330.9 L445.7,326.2 L445.9,324.1 L445.9,323.9 L432.9,323.3 L425.2,321.7 L424.2,321.5 L423.5,321.2 L420.7,319.7 L419.7,312.8 L418.9,310.6 L418.0,310.4 L417.6,310.5 L416.9,312.2 L415.8,314.3 L404.5,315.3 L403.8,318.8 L403.6,319.2 L396.2,318.5 L388.0,317.7 L387.9,311.7 L386.3,310.2 L385.4,310.1 L384.3,310.5 L383.3,311.0 L382.3,311.8 L377.7,320.5 L376.5,320.7 L373.9,321.0 L371.8,321.3 L372.0,320.7 L371.5,319.7 L371.5,318.6 L370.4,318.1 L368.3,316.8 L361.0,311.2 L350.7,308.6 L345.5,306.8 L342.4,306.1 L340.5,306.1 L340.0,306.4 L339.2,306.5 L338.6,305.4 L337.3,301.3 L335.3,297.9 L326.0,292.1 L324.6,290.5 L321.4,285.2 L320.4,285.3 L307.1,286.7 L302.0,288.2 L289.7,274.1 Z"/></clipPath>
    <linearGradient id="grad-buxoro" x1="0" y1="0" x2="0.3" y2="1">
      <stop offset="0%" stop-color="#ebe0f5"/>
      <stop offset="100%" stop-color="#b89fd4"/>
    </linearGradient>
    <clipPath id="clip-buxoro"><path class="uz-map-region" data-region="buxoro" fill="#000" stroke="#a88fc4" stroke-width="1.2" stroke-linejoin="round" d="M302.0,288.2 L312.5,301.0 L313.0,301.4 L314.1,302.2 L315.4,303.1 L311.9,304.1 L308.6,305.7 L305.8,307.1 L315.5,316.7 L315.5,317.9 L314.7,320.9 L310.3,325.0 L302.3,329.5 L310.9,334.9 L310.3,338.0 L312.8,340.7 L312.4,342.7 L313.8,347.7 L313.0,351.3 L313.2,351.6 L313.7,352.1 L314.4,352.9 L315.1,356.5 L315.9,357.5 L317.1,358.4 L370.8,391.2 L371.3,393.2 L371.3,393.5 L392.5,406.1 L399.2,404.5 L400.3,405.4 L401.7,406.6 L407.6,400.7 L424.1,396.4 L421.9,392.8 L422.1,391.3 L427.8,387.4 L428.3,386.4 L428.9,385.2 L434.9,381.7 L434.7,379.7 L434.6,379.0 L432.9,376.3 L429.7,376.5 L430.0,371.1 L423.1,368.3 L421.7,369.8 L419.9,368.7 L420.3,368.1 L419.1,366.7 L414.7,364.4 L414.6,363.3 L411.6,360.1 L413.5,357.1 L419.0,353.6 L421.1,349.5 L424.7,348.0 L422.7,346.1 L424.0,343.1 L424.0,343.0 L423.6,342.8 L422.5,342.3 L423.2,339.0 L426.4,338.8 L426.6,338.9 L427.3,339.4 L429.4,340.7 L435.8,341.0 L436.2,340.0 L437.2,337.1 L437.4,336.3 L439.2,336.1 L440.2,330.4 L443.6,330.6 L445.7,330.9 L445.7,326.2 L445.9,324.1 L445.9,323.9 L432.9,323.3 L425.2,321.7 L424.2,321.5 L423.5,321.2 L420.7,319.7 L419.7,312.8 L418.9,310.6 L418.0,310.4 L417.6,310.5 L416.9,312.2 L415.8,314.3 L404.5,315.3 L403.8,318.8 L403.6,319.2 L396.2,318.5 L388.0,317.7 L387.9,311.7 L386.3,310.2 L385.4,310.1 L384.3,310.5 L383.3,311.0 L382.3,311.8 L377.7,320.5 L376.5,320.7 L373.9,321.0 L371.8,321.3 L372.0,320.7 L371.5,319.7 L371.5,318.6 L370.4,318.1 L368.3,316.8 L361.0,311.2 L350.7,308.6 L345.5,306.8 L342.4,306.1 L340.5,306.1 L340.0,306.4 L339.2,306.5 L338.6,305.4 L337.3,301.3 L335.3,297.9 L326.0,292.1 L324.6,290.5 L321.4,285.2 L320.4,285.3 L307.1,286.7 L302.0,288.2 Z"/></clipPath>
    <linearGradient id="grad-qashqadaryo" x1="0" y1="0" x2="0.3" y2="1">
      <stop offset="0%" stop-color="#fde8c8"/>
      <stop offset="100%" stop-color="#e8b060"/>
    </linearGradient>
    <clipPath id="clip-qashqadaryo"><path class="uz-map-region" data-region="qashqadaryo" fill="#000" stroke="#d4a050" stroke-width="1.2" stroke-linejoin="round" d="M401.7,406.6 L407.6,400.7 L424.1,396.4 L421.9,392.8 L422.1,391.3 L427.8,387.4 L428.3,386.4 L428.9,385.2 L434.9,381.7 L440.4,380.6 L458.9,381.1 L462.3,379.2 L466.4,379.9 L469.6,383.0 L472.0,386.7 L472.2,387.5 L472.4,387.7 L473.0,388.0 L473.5,388.3 L475.2,389.1 L478.2,388.4 L480.0,385.3 L480.9,385.3 L481.5,385.7 L481.8,385.9 L484.5,384.1 L487.2,386.5 L488.2,385.2 L491.6,384.8 L495.9,387.5 L497.1,385.7 L500.4,385.9 L502.4,383.4 L506.6,382.5 L507.8,382.5 L508.0,383.6 L509.3,384.1 L511.7,383.9 L513.3,385.2 L513.5,387.4 L512.3,389.0 L512.3,390.5 L513.5,389.7 L514.3,390.5 L519.1,390.9 L520.4,387.5 L522.0,387.2 L532.4,389.2 L534.1,390.5 L533.4,393.1 L540.3,395.3 L544.1,395.2 L546.0,396.1 L546.4,397.3 L548.3,397.2 L547.9,400.2 L548.6,402.9 L547.0,404.1 L542.3,404.1 L539.7,405.5 L539.6,407.2 L539.9,407.4 L540.1,407.5 L540.4,407.7 L540.8,409.9 L542.4,410.9 L540.9,412.3 L542.2,415.6 L540.8,418.3 L535.7,417.7 L534.5,418.0 L533.6,419.6 L532.8,419.2 L531.7,422.6 L525.1,427.6 L522.8,432.4 L517.0,434.8 L513.8,438.4 L510.6,439.3 L511.0,440.1 L510.1,441.1 L510.9,442.8 L509.9,444.6 L508.9,445.8 L505.1,446.9 L500.1,452.5 L497.1,451.1 L491.0,451.0 L485.7,447.4 L484.6,445.1 L481.0,445.0 L474.9,441.6 L472.6,441.6 L469.7,439.2 L466.9,439.2 L466.3,440.5 L453.0,438.6 L436.6,428.3 L430.7,423.3 L430.4,423.2 L428.8,423.1 L424.4,420.2 L422.9,419.7 L421.2,419.6 L421.0,419.6 L407.8,411.7 L401.7,406.6 Z"/></clipPath>
    <linearGradient id="grad-surxondaryo" x1="0" y1="0" x2="0.3" y2="1">
      <stop offset="0%" stop-color="#d4ecd4"/>
      <stop offset="100%" stop-color="#6ec87a"/>
    </linearGradient>
    <clipPath id="clip-surxondaryo"><path class="uz-map-region" data-region="surxondaryo" fill="#000" stroke="#5a9e5c" stroke-width="1.2" stroke-linejoin="round" d="M497.0,481.7 L499.5,480.0 L499.4,479.6 L499.6,479.4 L499.6,478.7 L497.1,474.8 L498.0,462.6 L500.6,458.9 L504.3,456.5 L504.1,454.1 L500.1,452.5 L505.1,446.9 L508.9,445.8 L509.9,444.6 L510.9,442.8 L510.1,441.1 L511.0,440.1 L510.6,439.3 L513.8,438.4 L517.0,434.8 L522.8,432.4 L525.1,427.6 L531.7,422.6 L532.8,419.2 L533.6,419.6 L534.5,418.0 L535.7,417.7 L541.0,418.2 L542.2,415.6 L540.9,412.3 L542.4,410.9 L540.8,409.9 L540.4,407.7 L540.1,407.5 L539.9,407.4 L539.6,407.2 L539.8,405.3 L542.3,404.1 L545.0,404.7 L548.5,403.3 L549.7,404.5 L552.2,403.5 L556.8,404.2 L562.1,402.6 L563.9,403.8 L565.7,403.0 L567.7,403.6 L568.6,406.1 L571.3,407.2 L571.9,408.2 L570.5,410.0 L571.6,411.3 L568.5,413.1 L565.7,413.4 L568.4,417.2 L565.2,418.1 L566.8,421.5 L565.4,424.8 L565.5,426.9 L567.1,427.8 L567.8,430.0 L565.4,433.6 L568.8,432.7 L572.0,436.3 L574.8,437.1 L576.1,440.2 L579.3,441.7 L580.7,443.9 L579.4,448.5 L575.5,452.6 L574.6,456.9 L572.4,455.8 L568.8,455.9 L564.9,464.2 L563.0,466.0 L563.3,466.8 L557.8,470.5 L556.6,470.0 L556.5,472.2 L553.3,480.6 L555.6,484.9 L553.3,491.8 L550.3,490.2 L545.3,489.3 L543.3,490.3 L540.5,487.8 L536.0,490.3 L529.6,491.9 L529.1,491.7 L528.5,490.4 L528.1,489.0 L523.0,487.0 L523.1,485.0 L520.1,482.4 L518.6,482.8 L515.7,481.6 L511.4,483.7 L504.4,483.6 L502.7,485.2 L500.0,483.0 L498.1,483.7 L496.8,482.8 L497.0,481.7 Z"/></clipPath>
    <linearGradient id="grad-samarqand" x1="0" y1="0" x2="0.3" y2="1">
      <stop offset="0%" stop-color="#fff0c8"/>
      <stop offset="100%" stop-color="#e8c860"/>
    </linearGradient>
    <clipPath id="clip-samarqand"><path class="uz-map-region" data-region="samarqand" fill="#000" stroke="#d4a830" stroke-width="1.2" stroke-linejoin="round" d="M434.2,360.5 L435.7,363.4 L438.7,365.0 L439.7,370.6 L437.4,375.4 L440.7,380.7 L458.0,381.1 L460.7,380.6 L462.3,379.2 L466.4,379.9 L469.6,383.0 L472.0,386.7 L472.2,387.5 L472.4,387.7 L476.8,389.2 L478.3,388.3 L480.0,385.3 L480.9,385.3 L481.5,385.7 L481.8,385.9 L484.5,384.1 L487.2,386.5 L488.2,385.2 L491.6,384.8 L495.9,387.5 L497.1,385.7 L500.4,385.9 L502.4,383.4 L506.6,382.5 L507.8,382.5 L508.0,383.6 L509.3,384.1 L511.7,383.9 L513.3,385.2 L513.5,387.4 L512.3,389.0 L512.3,390.5 L513.5,389.7 L514.3,390.5 L519.1,390.9 L520.4,387.5 L522.0,387.2 L532.7,389.6 L539.2,388.7 L539.4,385.0 L538.2,384.0 L538.8,382.0 L535.7,379.1 L536.6,378.3 L539.0,378.7 L537.9,377.8 L538.2,376.4 L540.4,376.1 L539.3,375.7 L539.3,374.0 L538.8,373.6 L535.7,372.7 L536.1,370.0 L535.0,368.7 L542.0,364.6 L536.9,361.4 L536.0,360.3 L536.5,359.9 L536.2,359.7 L534.3,360.6 L528.6,360.1 L527.2,359.1 L526.0,359.8 L522.4,358.9 L521.7,356.7 L520.5,357.6 L519.6,356.8 L519.1,356.2 L519.1,356.1 L521.5,354.9 L520.2,351.9 L514.9,349.9 L517.8,346.8 L512.6,343.7 L513.0,342.6 L511.9,341.1 L512.8,340.1 L512.9,336.2 L513.6,335.0 L512.5,333.5 L513.0,332.6 L507.3,333.5 L505.6,332.2 L502.8,333.2 L502.3,332.2 L500.3,332.0 L499.3,329.7 L500.4,328.6 L498.8,328.1 L498.2,326.3 L497.1,326.0 L493.5,328.0 L489.6,327.9 L487.3,326.3 L487.1,326.3 L486.5,326.5 L484.4,326.5 L483.3,331.8 L483.6,332.5 L484.2,332.5 L484.2,332.7 L483.0,333.0 L482.2,334.4 L483.4,334.6 L482.9,336.2 L483.7,336.4 L479.5,348.3 L481.9,347.8 L481.9,348.2 L482.2,348.1 L482.3,348.4 L481.1,349.7 L481.3,351.7 L479.3,353.2 L476.9,354.5 L466.7,355.6 L465.8,354.7 L461.7,354.4 L458.8,353.1 L459.0,352.1 L457.9,350.8 L456.5,350.7 L452.7,347.8 L448.7,353.3 L450.8,354.6 L450.4,355.8 L450.2,355.8 L449.7,355.9 L449.4,355.8 L450.2,358.0 L449.6,360.8 L443.3,359.2 L440.9,361.5 L434.2,360.5 Z"/></clipPath>
    <linearGradient id="grad-jizzax" x1="0" y1="0" x2="0.3" y2="1">
      <stop offset="0%" stop-color="#d8eef0"/>
      <stop offset="100%" stop-color="#7ec8d4"/>
    </linearGradient>
    <clipPath id="clip-jizzax"><path class="uz-map-region" data-region="jizzax" fill="#000" stroke="#5aaeb8" stroke-width="1.2" stroke-linejoin="round" d="M502.2,302.4 L507.4,301.9 L507.1,300.9 L534.4,301.7 L543.5,299.7 L548.6,299.6 L550.9,299.0 L554.3,300.2 L556.7,301.3 L557.8,300.5 L561.1,300.6 L562.1,303.7 L561.9,306.6 L563.7,306.9 L563.7,306.0 L564.9,305.8 L566.2,303.9 L568.3,306.0 L565.1,307.4 L565.2,307.5 L565.7,307.4 L566.3,307.7 L566.6,309.3 L565.5,310.4 L566.4,310.6 L566.7,310.6 L566.9,310.9 L563.2,313.1 L562.9,314.5 L561.4,314.5 L561.6,315.9 L566.1,318.0 L573.7,323.5 L571.4,328.4 L571.4,328.4 L571.4,329.1 L570.7,328.5 L569.4,329.7 L569.1,330.8 L568.8,332.0 L571.3,332.5 L571.2,335.0 L571.2,335.0 L572.1,335.8 L566.8,340.7 L568.6,343.1 L573.6,343.1 L575.8,343.9 L581.9,343.1 L585.4,343.9 L591.3,343.3 L591.4,344.8 L591.4,345.4 L590.7,345.4 L590.1,345.4 L589.7,345.4 L590.5,348.1 L586.4,349.1 L586.4,349.1 L586.3,350.3 L586.3,350.3 L590.9,352.4 L608.1,348.6 L607.6,351.3 L605.3,352.0 L606.3,354.0 L603.0,352.8 L602.4,353.7 L600.8,353.6 L604.7,360.0 L602.3,362.6 L600.7,362.7 L600.7,359.9 L599.2,356.7 L598.3,357.5 L599.5,358.6 L599.7,361.3 L597.6,363.8 L597.1,362.1 L596.1,362.5 L596.5,363.5 L591.0,363.1 L591.3,366.8 L588.8,369.3 L590.5,370.7 L590.1,373.5 L586.6,376.1 L587.0,377.4 L586.0,378.6 L580.1,378.0 L579.1,378.7 L575.4,377.3 L571.6,377.6 L570.5,376.8 L567.8,377.3 L561.6,375.1 L559.9,375.4 L553.4,372.6 L552.0,373.4 L549.6,372.5 L547.1,373.6 L546.1,375.3 L541.2,376.4 L539.3,375.7 L539.3,374.0 L535.7,372.7 L536.1,370.0 L535.0,368.7 L542.0,364.6 L536.9,361.4 L536.0,360.3 L536.5,359.9 L536.2,359.7 L534.3,360.6 L528.6,360.1 L527.2,359.1 L526.0,359.8 L522.4,358.9 L521.7,356.7 L520.5,357.6 L519.6,356.8 L519.1,356.2 L519.1,356.1 L521.5,354.9 L520.2,351.9 L514.9,349.9 L517.8,346.8 L512.6,343.7 L513.0,342.6 L511.9,341.1 L512.8,340.1 L512.9,336.2 L513.6,335.0 L512.5,333.5 L513.0,332.6 L507.3,333.5 L505.6,332.2 L502.6,333.0 L503.3,329.2 L503.4,329.0 L503.8,328.8 L504.5,328.4 L504.6,326.7 L507.8,321.9 L507.8,316.5 L508.6,315.7 L508.3,315.0 L508.1,313.3 L508.0,312.8 L502.7,312.3 L502.4,306.4 L502.2,302.4 Z"/></clipPath>
    <linearGradient id="grad-sirdaryo" x1="0" y1="0" x2="0.3" y2="1">
      <stop offset="0%" stop-color="#d0f0e4"/>
      <stop offset="100%" stop-color="#6ec8a0"/>
    </linearGradient>
    <clipPath id="clip-sirdaryo"><path class="uz-map-region" data-region="sirdaryo" fill="#000" stroke="#1EB53A" stroke-width="1.2" stroke-linejoin="round" d="M568.6,343.1 L573.6,343.1 L575.8,343.9 L581.9,343.1 L585.4,343.9 L591.3,343.3 L591.4,344.8 L591.4,345.4 L590.7,345.4 L590.1,345.4 L589.7,345.4 L590.5,348.1 L597.4,346.2 L597.5,346.5 L597.9,347.3 L598.2,347.7 L600.2,347.2 L601.1,345.9 L608.8,345.0 L614.8,345.8 L610.5,340.7 L610.6,336.9 L612.5,335.2 L611.0,332.7 L611.9,331.7 L610.1,331.8 L610.8,331.0 L610.6,328.6 L611.9,328.7 L610.9,327.7 L609.8,328.3 L611.1,326.8 L609.6,325.9 L609.5,325.0 L606.7,325.0 L607.4,323.8 L605.1,323.7 L605.0,321.8 L603.3,321.4 L601.9,318.3 L599.6,317.8 L599.6,316.7 L596.4,315.1 L595.1,315.2 L595.6,313.9 L594.1,314.6 L594.8,313.1 L590.6,309.5 L592.6,308.4 L590.2,307.7 L589.7,306.3 L587.6,307.5 L586.0,306.7 L584.8,309.1 L585.7,310.6 L587.1,310.4 L588.6,311.5 L589.0,314.3 L587.8,315.1 L587.7,315.5 L587.7,317.2 L588.7,318.4 L588.7,321.9 L591.3,322.6 L591.5,324.7 L590.4,325.6 L592.2,327.1 L588.6,328.6 L586.3,327.9 L584.1,328.5 L573.7,323.5 L571.4,328.4 L571.4,328.4 L571.4,329.1 L570.7,328.5 L569.1,330.8 L568.8,332.0 L571.3,332.5 L571.2,335.0 L571.2,335.0 L572.1,335.8 L566.8,340.7 L568.6,343.1 Z"/></clipPath>
    <linearGradient id="grad-toshkent" x1="0" y1="0" x2="0.3" y2="1">
      <stop offset="0%" stop-color="#cce8f4"/>
      <stop offset="100%" stop-color="#7ec0e8"/>
    </linearGradient>
    <clipPath id="clip-toshkent"><path class="uz-map-region" data-region="toshkent" fill="#000" stroke="#0099B5" stroke-width="1.2" stroke-linejoin="round" d="M612.6,295.0 L614.7,290.6 L617.6,288.6 L621.3,289.3 L622.5,290.6 L624.7,290.2 L625.4,291.2 L624.2,291.3 L622.7,293.0 L623.9,293.3 L624.7,296.1 L619.6,298.0 L620.5,299.3 L620.0,299.7 L619.7,299.8 L619.5,299.9 L615.2,299.0 L615.6,297.7 L613.8,294.3 L612.6,295.0 Z M617.1,296.1 L617.1,297.0 L618.0,296.5 L618.1,297.3 L618.1,297.4 L618.1,297.4 L618.9,297.1 L619.3,297.5 L621.5,296.3 L617.1,296.1 Z M591.2,310.5 L596.0,308.7 L596.4,307.3 L594.4,306.3 L598.5,302.1 L606.6,297.7 L607.2,296.3 L608.5,297.0 L608.1,295.9 L609.0,295.0 L607.8,293.8 L609.2,292.8 L609.3,291.0 L608.3,290.6 L610.7,289.6 L610.7,290.6 L611.5,290.5 L612.3,288.9 L614.1,289.2 L615.0,288.4 L613.8,287.0 L617.3,285.5 L620.4,286.8 L623.0,285.0 L627.6,285.4 L627.4,284.3 L624.9,283.3 L627.1,280.6 L629.5,281.4 L630.7,280.6 L631.7,280.3 L631.2,279.4 L634.8,275.8 L644.6,273.1 L648.1,273.4 L649.9,272.4 L651.7,268.9 L654.0,270.2 L654.0,269.2 L656.3,267.4 L659.6,266.5 L661.9,262.7 L666.7,260.8 L666.0,257.7 L668.4,256.2 L672.2,255.5 L673.1,254.3 L676.1,256.0 L676.7,258.4 L680.0,258.8 L682.4,253.7 L685.4,251.3 L684.7,250.8 L685.2,250.2 L687.1,249.5 L689.6,250.0 L693.8,246.9 L696.3,247.2 L697.6,245.4 L702.2,246.0 L705.5,248.7 L707.2,248.6 L708.2,249.7 L707.8,251.5 L706.2,252.8 L702.6,253.1 L700.7,255.0 L696.6,256.8 L696.0,258.1 L690.3,257.0 L689.1,259.6 L689.8,262.4 L688.9,263.3 L685.5,262.6 L685.3,263.8 L681.4,264.1 L679.8,266.6 L678.6,266.8 L678.5,268.3 L675.3,269.3 L673.9,273.1 L672.5,273.0 L669.4,274.8 L668.1,276.6 L663.6,278.5 L661.1,278.3 L661.3,279.5 L659.7,280.9 L659.3,282.9 L662.5,284.1 L665.3,282.7 L668.7,285.3 L669.9,285.1 L673.8,288.6 L672.7,291.0 L669.3,293.0 L669.0,294.9 L671.7,295.2 L670.8,296.5 L671.8,299.6 L671.9,300.0 L671.3,300.4 L674.9,303.1 L673.8,303.5 L672.8,305.8 L670.2,306.1 L668.4,307.7 L669.1,309.4 L668.3,310.5 L668.3,312.7 L664.5,313.9 L660.7,316.4 L659.0,315.8 L657.4,316.4 L656.8,318.1 L654.8,319.6 L642.5,322.2 L641.3,324.6 L639.3,325.7 L637.0,325.5 L636.2,323.7 L633.2,322.1 L631.9,319.0 L629.5,318.4 L629.1,316.9 L626.3,318.3 L625.4,319.8 L623.9,317.9 L622.7,318.7 L623.4,320.6 L621.8,322.1 L622.7,327.8 L618.9,328.3 L616.6,329.7 L619.7,332.3 L619.1,333.9 L620.7,338.3 L622.4,339.7 L620.9,342.5 L618.2,341.8 L618.9,343.6 L620.6,344.2 L620.1,345.2 L620.8,347.0 L614.6,345.8 L610.6,340.7 L610.6,336.9 L612.5,335.1 L611.0,332.7 L611.9,331.7 L610.1,331.8 L610.8,331.0 L610.6,328.6 L611.9,328.7 L610.9,327.7 L609.8,328.4 L611.3,327.2 L609.6,325.9 L609.9,325.3 L606.7,325.0 L607.5,323.8 L605.1,323.7 L605.0,321.8 L603.3,321.4 L601.9,318.3 L599.6,317.8 L599.6,316.7 L596.4,315.1 L595.1,315.2 L595.6,313.9 L594.1,314.6 L594.8,313.1 L591.2,310.5 Z M612.6,295.0 L614.7,290.6 L617.6,288.6 L621.3,289.3 L622.5,290.6 L624.7,290.2 L625.4,291.2 L624.2,291.3 L622.7,293.0 L623.9,293.3 L624.7,296.1 L619.6,298.0 L620.5,299.3 L620.0,299.7 L619.7,299.8 L619.5,299.9 L615.2,299.0 L615.6,297.7 L613.8,294.3 L612.6,295.0 Z M617.1,296.1 L617.1,297.0 L618.0,296.5 L618.1,297.3 L618.1,297.4 L618.1,297.4 L619.3,297.5 L621.5,296.3 L617.1,296.1 Z M628.1,288.3 L627.3,287.4 L626.3,288.5 L628.1,288.3 Z"/></clipPath>
    <linearGradient id="grad-namangan" x1="0" y1="0" x2="0.3" y2="1">
      <stop offset="0%" stop-color="#f0dce8"/>
      <stop offset="100%" stop-color="#e8a0c0"/>
    </linearGradient>
    <clipPath id="clip-namangan"><path class="uz-map-region" data-region="namangan" fill="#000" stroke="#c47a9a" stroke-width="1.2" stroke-linejoin="round" d="M669.1,295.2 L669.3,293.0 L672.7,291.0 L673.9,288.6 L676.3,288.0 L678.2,285.8 L682.3,285.0 L683.7,285.3 L686.5,289.2 L686.0,295.0 L686.8,298.4 L687.4,296.7 L689.9,295.7 L694.8,299.9 L698.0,298.6 L702.0,300.9 L705.0,298.9 L706.0,299.7 L706.6,298.5 L708.4,299.4 L708.7,303.0 L711.9,301.3 L713.9,302.6 L716.4,300.2 L715.5,298.9 L716.8,297.5 L716.2,294.1 L719.3,293.0 L721.7,293.7 L724.7,291.3 L725.8,289.4 L725.3,288.6 L726.6,287.5 L725.8,286.0 L723.1,284.8 L726.2,283.8 L728.6,281.3 L729.3,282.2 L728.4,282.6 L729.0,282.9 L727.3,287.4 L728.4,287.4 L729.1,286.0 L729.8,286.9 L731.6,286.6 L733.6,290.7 L735.6,290.3 L735.8,292.1 L737.5,293.6 L734.7,298.1 L734.8,298.3 L735.1,298.4 L735.7,298.5 L735.7,298.6 L735.7,299.2 L735.8,299.7 L738.3,300.8 L741.1,300.3 L744.0,302.1 L745.6,300.4 L748.4,299.9 L747.3,301.2 L749.3,302.9 L750.2,306.2 L749.0,307.5 L748.0,307.2 L748.5,308.4 L749.1,308.0 L748.8,309.8 L746.3,312.9 L733.3,311.8 L730.0,312.6 L727.5,312.9 L721.8,316.0 L722.2,316.3 L720.6,317.6 L721.3,318.1 L721.7,318.8 L713.7,321.9 L708.7,326.5 L701.1,322.8 L700.3,321.2 L701.6,319.9 L702.0,319.5 L702.0,319.3 L695.4,319.4 L687.3,321.3 L686.5,319.9 L684.2,318.9 L683.1,317.4 L684.2,317.0 L683.5,316.3 L680.8,314.6 L676.5,308.8 L675.0,308.4 L672.8,305.8 L673.8,303.5 L674.9,303.1 L671.3,300.4 L671.9,300.0 L671.8,299.6 L670.8,296.5 L671.7,295.2 L669.1,295.2 Z M676.3,308.3 L678.4,308.9 L681.7,312.1 L677.0,307.5 L676.3,308.3 Z"/></clipPath>
    <linearGradient id="grad-andijon" x1="0" y1="0" x2="0.3" y2="1">
      <stop offset="0%" stop-color="#e0dce8"/>
      <stop offset="100%" stop-color="#a898c8"/>
    </linearGradient>
    <clipPath id="clip-andijon"><path class="uz-map-region" data-region="andijon" fill="#000" stroke="#8878a8" stroke-width="1.2" stroke-linejoin="round" d="M721.7,318.8 L722.2,319.7 L718.4,320.6 L720.2,321.6 L722.2,324.7 L722.4,325.7 L724.1,324.1 L724.7,323.9 L724.3,321.2 L724.6,320.7 L725.0,320.5 L725.4,320.0 L726.5,321.1 L726.7,321.2 L726.7,321.4 L727.8,321.6 L728.8,321.9 L729.6,321.7 L736.6,325.9 L740.6,326.9 L744.9,326.2 L748.0,328.9 L749.8,328.7 L751.4,329.8 L750.5,330.9 L750.5,330.9 L750.8,332.7 L752.2,332.8 L751.7,333.8 L753.2,335.1 L755.2,334.5 L759.1,336.7 L760.5,333.2 L759.3,331.5 L757.7,331.1 L759.8,330.0 L759.6,329.0 L756.3,327.0 L759.2,326.2 L762.1,329.5 L762.5,329.2 L762.7,329.2 L763.4,329.0 L770.0,331.4 L770.7,330.8 L770.4,327.8 L771.8,327.2 L774.7,328.4 L774.2,326.7 L775.8,323.9 L778.6,323.6 L779.4,322.3 L778.9,321.7 L783.0,320.7 L785.0,319.2 L791.4,318.3 L792.0,316.7 L791.9,316.1 L791.9,315.9 L791.6,315.5 L786.2,315.2 L782.7,317.4 L778.0,314.8 L772.6,315.1 L767.2,314.2 L767.3,312.4 L765.4,309.7 L762.9,309.4 L763.2,308.4 L761.0,306.5 L758.2,306.4 L756.5,304.9 L752.4,307.5 L749.1,308.0 L748.8,309.8 L746.3,312.9 L733.3,311.8 L730.0,312.6 L727.5,312.9 L721.8,316.0 L722.2,316.3 L720.6,317.6 L721.3,318.1 L721.7,318.8 Z M775.4,323.4 L774.6,323.9 L775.4,323.4 Z"/></clipPath>
    <linearGradient id="grad-fargona" x1="0" y1="0" x2="0.3" y2="1">
      <stop offset="0%" stop-color="#fce4dc"/>
      <stop offset="100%" stop-color="#e8a090"/>
    </linearGradient>
    <clipPath id="clip-fargona"><path class="uz-map-region" data-region="fargona" fill="#000" stroke="#d47868" stroke-width="1.2" stroke-linejoin="round" d="M666.5,333.9 L668.6,337.4 L677.7,339.7 L676.7,341.0 L678.4,344.4 L677.6,344.7 L679.9,347.5 L685.6,347.0 L691.6,344.9 L691.7,341.0 L696.4,340.6 L698.7,341.3 L701.8,339.9 L706.5,339.6 L707.5,340.1 L707.0,340.5 L708.5,339.5 L710.1,341.2 L712.7,340.7 L715.4,342.4 L718.6,342.7 L719.2,344.9 L721.4,345.6 L723.8,346.1 L723.9,343.2 L726.3,343.0 L727.8,346.3 L726.5,346.6 L728.3,347.6 L728.8,348.9 L731.3,346.2 L733.4,346.1 L733.8,343.8 L735.7,343.4 L738.3,344.6 L739.4,344.3 L738.6,343.7 L743.1,342.7 L739.4,340.6 L744.8,336.5 L744.7,334.3 L746.6,334.0 L748.6,332.1 L750.8,332.7 L750.5,330.9 L750.5,330.9 L750.8,330.6 L751.3,330.3 L751.4,330.2 L749.8,328.7 L747.9,328.8 L744.9,326.2 L740.6,326.9 L736.6,325.9 L729.6,321.7 L728.8,321.9 L727.8,321.6 L726.7,321.4 L726.7,321.2 L726.5,321.1 L725.4,320.0 L725.0,320.5 L724.6,320.7 L724.3,321.2 L724.7,323.9 L724.1,324.1 L722.4,325.7 L722.2,324.7 L720.2,321.6 L718.4,320.6 L722.2,319.7 L721.7,318.8 L713.7,321.9 L708.7,326.5 L701.1,322.8 L700.3,321.2 L701.6,319.9 L702.0,319.5 L702.0,319.3 L695.4,319.4 L686.4,321.4 L685.7,323.0 L684.3,323.0 L684.5,324.3 L683.2,324.1 L680.1,326.0 L677.9,328.7 L674.6,329.5 L673.3,331.9 L666.5,333.9 Z M696.6,352.3 L696.2,347.2 L699.0,347.8 L701.6,355.2 L705.1,354.4 L704.2,356.0 L702.8,356.0 L703.7,357.4 L702.3,358.2 L705.7,358.2 L705.2,359.1 L706.4,359.7 L705.4,361.2 L702.5,361.8 L701.7,359.8 L700.5,360.4 L700.8,361.9 L699.1,361.1 L698.8,360.5 L700.3,358.5 L701.6,358.0 L700.2,356.6 L701.4,356.4 L701.2,355.0 L697.5,353.6 L696.6,352.3 Z M725.7,346.3 L726.2,346.5 L725.7,346.3 Z M729.7,357.1 L731.6,355.7 L734.6,356.8 L734.0,358.6 L731.4,357.7 L729.5,359.3 L729.6,358.3 L728.2,358.4 L728.1,357.7 L729.7,357.1 Z"/></clipPath>
  </defs>
  <rect width="820" height="520" rx="16" fill="url(#uz-suzani)"/>
  <rect width="820" height="520" rx="16" fill="#fff8ee" opacity="0.88"/>
  <rect x="10" y="10" width="800" height="500" rx="12" fill="none" stroke="#e6821e" stroke-width="3" opacity="0.25" stroke-dasharray="8 6"/>
  <g filter="url(#mapSoftShadow)">
    <g class="uz-map-waters">
    <path class="uz-map-water" d="M126.1,37.6 L197.3,28.0 L259.7,56.9 L286.4,95.5 L250.8,134.1 L184.0,153.4 L117.1,124.5 L94.9,76.2 L126.1,37.6 Z M161.7,172.7 L228.5,163.1 L273.1,201.7 L250.8,240.3 L197.3,249.9 L152.8,221.0 L161.7,172.7 Z" fill="#a8d4ec" stroke="#8ab8cc" stroke-width="0.8" opacity="0.92"/>
  </g>
    <g class="uz-map-regions uz-map-regions--kids" fill-rule="evenodd">
    <path class="uz-map-region uz-map-region--kids" data-region="qoraqalpogiston" fill="url(#grad-qoraqalpogiston)" stroke="#7eb8cc" stroke-width="1.6" stroke-linejoin="round" d="M28.0,142.0 L28.0,114.8 L143.4,86.4 L161.3,97.0 L239.4,132.0 L246.3,138.3 L251.1,142.7 L253.8,145.2 L255.5,145.7 L256.9,152.2 L295.5,186.9 L307.4,197.1 L309.0,197.4 L312.2,198.1 L316.9,199.0 L297.3,228.3 L294.9,233.7 L291.8,243.4 L295.6,254.5 L297.2,257.0 L281.4,265.3 L289.7,274.1 L289.9,274.4 L292.7,277.3 L312.5,301.0 L313.0,301.4 L314.1,302.2 L315.4,303.1 L303.1,308.7 L299.8,305.9 L294.5,300.9 L290.8,297.3 L284.9,293.0 L280.4,292.1 L277.8,291.0 L275.1,290.8 L270.0,290.7 L268.9,290.6 L268.0,295.0 L268.9,297.5 L266.6,297.6 L263.2,295.0 L262.7,293.3 L258.0,290.9 L250.9,285.8 L250.9,285.6 L251.0,285.2 L250.9,285.0 L249.1,284.8 L249.4,283.2 L240.6,277.1 L237.3,276.0 L235.3,273.1 L235.4,271.9 L229.4,270.1 L229.1,267.0 L226.7,265.8 L226.4,265.3 L226.4,265.1 L226.6,262.6 L226.2,262.3 L225.5,261.6 L220.0,259.7 L217.8,260.6 L217.8,261.5 L215.8,262.9 L213.3,261.8 L212.7,263.7 L214.3,265.5 L214.1,265.6 L213.7,265.9 L213.2,266.4 L210.9,264.2 L207.4,263.4 L207.4,262.0 L205.0,262.5 L203.4,261.4 L202.5,260.0 L203.1,258.9 L207.2,259.8 L208.4,255.2 L204.0,252.7 L205.0,252.0 L204.8,250.9 L206.9,251.6 L206.8,249.3 L204.2,248.4 L201.4,245.0 L197.9,246.4 L189.0,245.2 L187.0,246.0 L181.0,245.5 L180.3,243.9 L175.3,242.1 L173.2,239.6 L173.7,238.8 L169.4,234.0 L162.3,234.1 L156.0,230.1 L145.1,221.1 L146.3,224.5 L144.4,225.6 L143.4,228.5 L138.1,228.8 L129.7,226.5 L124.1,229.6 L125.8,231.2 L130.8,233.1 L136.1,241.2 L140.4,244.1 L140.3,246.4 L137.2,245.3 L134.8,245.7 L135.0,243.2 L134.1,240.3 L131.6,238.0 L126.0,236.9 L123.1,238.2 L123.1,237.6 L123.3,236.4 L122.8,236.0 L118.9,235.2 L116.1,236.2 L115.7,239.0 L114.0,237.4 L113.4,237.5 L113.2,237.8 L112.9,239.0 L114.8,241.6 L114.1,247.3 L114.0,247.7 L113.6,248.0 L113.2,248.2 L110.3,247.7 L110.1,248.1 L109.7,249.0 L110.7,251.1 L106.1,251.5 L101.6,253.0 L95.0,252.2 L88.5,252.6 L83.2,255.0 L80.1,260.8 L79.5,261.4 L78.4,262.3 L72.8,264.5 L71.2,269.0 L71.4,275.4 L73.7,280.4 L74.0,286.3 L76.5,289.7 L79.2,289.3 L79.6,289.6 L79.7,290.0 L75.8,292.3 L74.5,295.1 L28.0,292.4 L28.0,291.7 L28.0,175.0 L28.0,142.0 Z"/>
    <path class="uz-map-region uz-map-region--kids" data-region="xorazm" fill="url(#grad-xorazm)" stroke="#c4a86a" stroke-width="1.6" stroke-linejoin="round" d="M213.0,289.5 L212.1,288.7 L211.1,288.2 L210.4,287.9 L209.5,285.7 L210.3,283.7 L210.9,281.9 L210.9,281.7 L214.1,279.9 L214.1,278.5 L208.3,271.6 L210.4,268.7 L220.4,271.6 L220.6,271.4 L220.8,271.1 L220.8,270.7 L218.2,268.6 L213.6,266.8 L214.3,265.5 L212.6,263.0 L213.3,261.8 L216.2,262.8 L217.8,261.5 L217.8,260.6 L220.0,259.7 L226.6,262.6 L226.4,265.1 L226.4,265.3 L229.1,267.0 L229.4,270.1 L235.4,271.9 L235.3,273.1 L237.3,276.0 L240.6,277.1 L249.4,283.2 L249.1,284.8 L250.9,285.0 L251.0,285.2 L250.9,285.6 L250.9,285.8 L258.0,290.9 L262.7,293.3 L263.2,295.0 L266.1,297.3 L268.6,298.1 L265.5,300.7 L261.5,300.8 L256.5,298.6 L254.8,296.7 L254.6,296.9 L254.6,297.3 L254.5,297.5 L253.7,295.5 L253.1,295.9 L252.3,294.8 L252.1,297.1 L250.8,296.1 L240.4,295.3 L228.1,297.3 L213.0,289.5 Z M268.8,297.3 L269.0,293.9 L278.7,295.0 L279.8,296.6 L282.6,297.4 L290.1,302.5 L290.9,305.2 L293.7,306.5 L295.2,309.1 L294.7,315.7 L301.8,329.3 L302.3,329.5 L310.3,325.0 L314.7,320.9 L315.5,317.9 L315.5,316.7 L305.8,307.1 L303.1,308.7 L299.8,305.9 L294.5,300.9 L290.8,297.3 L284.9,293.0 L280.4,292.1 L277.8,291.0 L268.9,290.6 L268.0,295.0 L268.8,297.3 Z"/>
    <path class="uz-map-region uz-map-region--kids" data-region="navoiy" fill="url(#grad-navoiy)" stroke="#8fbf7a" stroke-width="1.6" stroke-linejoin="round" d="M289.7,274.1 L281.4,265.3 L281.5,264.8 L297.2,257.0 L295.6,254.5 L291.8,243.4 L294.9,233.7 L297.3,228.3 L316.9,199.0 L312.2,198.1 L309.0,197.4 L307.4,197.1 L295.5,186.9 L306.2,186.3 L355.5,179.9 L378.1,182.4 L408.3,183.8 L413.0,181.7 L416.7,180.0 L426.0,175.8 L429.1,176.8 L437.2,187.4 L451.1,195.3 L452.7,196.1 L453.9,197.4 L457.7,203.8 L462.0,211.3 L466.6,218.2 L477.9,214.3 L477.8,232.3 L476.7,243.3 L473.6,242.2 L473.5,262.6 L497.3,265.5 L500.6,284.0 L502.3,291.0 L505.1,300.9 L507.1,300.9 L507.4,301.9 L502.2,302.4 L502.4,306.4 L502.7,312.3 L508.0,312.8 L508.1,313.3 L508.3,315.0 L508.6,315.7 L507.8,316.5 L508.0,317.2 L508.2,319.6 L508.1,320.4 L505.4,326.4 L504.6,326.7 L504.5,328.4 L503.8,328.8 L503.4,329.0 L503.3,329.2 L502.7,332.3 L500.3,332.0 L499.3,329.7 L500.4,328.6 L498.8,328.1 L498.2,326.3 L497.1,326.0 L493.5,328.0 L489.6,327.9 L487.3,326.3 L487.1,326.3 L486.5,326.5 L484.4,326.5 L483.3,331.8 L483.6,332.5 L484.2,332.5 L484.2,332.7 L483.0,333.0 L482.2,334.4 L483.4,334.6 L482.9,336.2 L483.7,336.4 L479.5,348.3 L481.9,347.8 L481.9,348.2 L482.2,348.1 L482.3,348.4 L481.1,349.7 L481.3,351.7 L479.3,353.2 L476.9,354.5 L466.7,355.6 L465.8,354.7 L461.7,354.4 L458.8,353.1 L459.0,352.1 L457.9,350.8 L456.5,350.7 L452.7,347.8 L448.7,353.3 L450.8,354.6 L450.4,355.8 L450.2,355.8 L449.7,355.9 L449.4,355.8 L450.2,358.0 L449.6,360.8 L443.3,359.2 L440.9,361.5 L434.2,360.5 L435.7,363.4 L438.7,365.0 L439.1,366.4 L439.7,370.6 L437.4,375.4 L440.4,380.6 L435.2,381.9 L434.6,379.0 L432.9,376.3 L429.7,376.5 L430.0,371.1 L423.1,368.3 L421.7,369.8 L419.9,368.7 L420.3,368.1 L419.1,366.7 L414.7,364.4 L414.6,363.3 L411.6,360.1 L413.5,357.1 L419.0,353.6 L421.1,349.5 L424.7,348.0 L422.7,346.1 L424.0,343.1 L424.0,343.0 L423.6,342.8 L422.5,342.3 L423.2,339.0 L426.4,338.8 L426.6,338.9 L427.3,339.4 L429.4,340.7 L435.8,341.0 L436.2,340.0 L437.2,337.1 L437.4,336.3 L439.2,336.1 L440.2,330.4 L443.6,330.6 L445.7,330.9 L445.7,326.2 L445.9,324.1 L445.9,323.9 L432.9,323.3 L425.2,321.7 L424.2,321.5 L423.5,321.2 L420.7,319.7 L419.7,312.8 L418.9,310.6 L418.0,310.4 L417.6,310.5 L416.9,312.2 L415.8,314.3 L404.5,315.3 L403.8,318.8 L403.6,319.2 L396.2,318.5 L388.0,317.7 L387.9,311.7 L386.3,310.2 L385.4,310.1 L384.3,310.5 L383.3,311.0 L382.3,311.8 L377.7,320.5 L376.5,320.7 L373.9,321.0 L371.8,321.3 L372.0,320.7 L371.5,319.7 L371.5,318.6 L370.4,318.1 L368.3,316.8 L361.0,311.2 L350.7,308.6 L345.5,306.8 L342.4,306.1 L340.5,306.1 L340.0,306.4 L339.2,306.5 L338.6,305.4 L337.3,301.3 L335.3,297.9 L326.0,292.1 L324.6,290.5 L321.4,285.2 L320.4,285.3 L307.1,286.7 L302.0,288.2 L289.7,274.1 Z"/>
    <path class="uz-map-region uz-map-region--kids" data-region="buxoro" fill="url(#grad-buxoro)" stroke="#a88fc4" stroke-width="1.6" stroke-linejoin="round" d="M302.0,288.2 L312.5,301.0 L313.0,301.4 L314.1,302.2 L315.4,303.1 L311.9,304.1 L308.6,305.7 L305.8,307.1 L315.5,316.7 L315.5,317.9 L314.7,320.9 L310.3,325.0 L302.3,329.5 L310.9,334.9 L310.3,338.0 L312.8,340.7 L312.4,342.7 L313.8,347.7 L313.0,351.3 L313.2,351.6 L313.7,352.1 L314.4,352.9 L315.1,356.5 L315.9,357.5 L317.1,358.4 L370.8,391.2 L371.3,393.2 L371.3,393.5 L392.5,406.1 L399.2,404.5 L400.3,405.4 L401.7,406.6 L407.6,400.7 L424.1,396.4 L421.9,392.8 L422.1,391.3 L427.8,387.4 L428.3,386.4 L428.9,385.2 L434.9,381.7 L434.7,379.7 L434.6,379.0 L432.9,376.3 L429.7,376.5 L430.0,371.1 L423.1,368.3 L421.7,369.8 L419.9,368.7 L420.3,368.1 L419.1,366.7 L414.7,364.4 L414.6,363.3 L411.6,360.1 L413.5,357.1 L419.0,353.6 L421.1,349.5 L424.7,348.0 L422.7,346.1 L424.0,343.1 L424.0,343.0 L423.6,342.8 L422.5,342.3 L423.2,339.0 L426.4,338.8 L426.6,338.9 L427.3,339.4 L429.4,340.7 L435.8,341.0 L436.2,340.0 L437.2,337.1 L437.4,336.3 L439.2,336.1 L440.2,330.4 L443.6,330.6 L445.7,330.9 L445.7,326.2 L445.9,324.1 L445.9,323.9 L432.9,323.3 L425.2,321.7 L424.2,321.5 L423.5,321.2 L420.7,319.7 L419.7,312.8 L418.9,310.6 L418.0,310.4 L417.6,310.5 L416.9,312.2 L415.8,314.3 L404.5,315.3 L403.8,318.8 L403.6,319.2 L396.2,318.5 L388.0,317.7 L387.9,311.7 L386.3,310.2 L385.4,310.1 L384.3,310.5 L383.3,311.0 L382.3,311.8 L377.7,320.5 L376.5,320.7 L373.9,321.0 L371.8,321.3 L372.0,320.7 L371.5,319.7 L371.5,318.6 L370.4,318.1 L368.3,316.8 L361.0,311.2 L350.7,308.6 L345.5,306.8 L342.4,306.1 L340.5,306.1 L340.0,306.4 L339.2,306.5 L338.6,305.4 L337.3,301.3 L335.3,297.9 L326.0,292.1 L324.6,290.5 L321.4,285.2 L320.4,285.3 L307.1,286.7 L302.0,288.2 Z"/>
    <path class="uz-map-region uz-map-region--kids" data-region="qashqadaryo" fill="url(#grad-qashqadaryo)" stroke="#d4a050" stroke-width="1.6" stroke-linejoin="round" d="M401.7,406.6 L407.6,400.7 L424.1,396.4 L421.9,392.8 L422.1,391.3 L427.8,387.4 L428.3,386.4 L428.9,385.2 L434.9,381.7 L440.4,380.6 L458.9,381.1 L462.3,379.2 L466.4,379.9 L469.6,383.0 L472.0,386.7 L472.2,387.5 L472.4,387.7 L473.0,388.0 L473.5,388.3 L475.2,389.1 L478.2,388.4 L480.0,385.3 L480.9,385.3 L481.5,385.7 L481.8,385.9 L484.5,384.1 L487.2,386.5 L488.2,385.2 L491.6,384.8 L495.9,387.5 L497.1,385.7 L500.4,385.9 L502.4,383.4 L506.6,382.5 L507.8,382.5 L508.0,383.6 L509.3,384.1 L511.7,383.9 L513.3,385.2 L513.5,387.4 L512.3,389.0 L512.3,390.5 L513.5,389.7 L514.3,390.5 L519.1,390.9 L520.4,387.5 L522.0,387.2 L532.4,389.2 L534.1,390.5 L533.4,393.1 L540.3,395.3 L544.1,395.2 L546.0,396.1 L546.4,397.3 L548.3,397.2 L547.9,400.2 L548.6,402.9 L547.0,404.1 L542.3,404.1 L539.7,405.5 L539.6,407.2 L539.9,407.4 L540.1,407.5 L540.4,407.7 L540.8,409.9 L542.4,410.9 L540.9,412.3 L542.2,415.6 L540.8,418.3 L535.7,417.7 L534.5,418.0 L533.6,419.6 L532.8,419.2 L531.7,422.6 L525.1,427.6 L522.8,432.4 L517.0,434.8 L513.8,438.4 L510.6,439.3 L511.0,440.1 L510.1,441.1 L510.9,442.8 L509.9,444.6 L508.9,445.8 L505.1,446.9 L500.1,452.5 L497.1,451.1 L491.0,451.0 L485.7,447.4 L484.6,445.1 L481.0,445.0 L474.9,441.6 L472.6,441.6 L469.7,439.2 L466.9,439.2 L466.3,440.5 L453.0,438.6 L436.6,428.3 L430.7,423.3 L430.4,423.2 L428.8,423.1 L424.4,420.2 L422.9,419.7 L421.2,419.6 L421.0,419.6 L407.8,411.7 L401.7,406.6 Z"/>
    <path class="uz-map-region uz-map-region--kids" data-region="surxondaryo" fill="url(#grad-surxondaryo)" stroke="#5a9e5c" stroke-width="1.6" stroke-linejoin="round" d="M497.0,481.7 L499.5,480.0 L499.4,479.6 L499.6,479.4 L499.6,478.7 L497.1,474.8 L498.0,462.6 L500.6,458.9 L504.3,456.5 L504.1,454.1 L500.1,452.5 L505.1,446.9 L508.9,445.8 L509.9,444.6 L510.9,442.8 L510.1,441.1 L511.0,440.1 L510.6,439.3 L513.8,438.4 L517.0,434.8 L522.8,432.4 L525.1,427.6 L531.7,422.6 L532.8,419.2 L533.6,419.6 L534.5,418.0 L535.7,417.7 L541.0,418.2 L542.2,415.6 L540.9,412.3 L542.4,410.9 L540.8,409.9 L540.4,407.7 L540.1,407.5 L539.9,407.4 L539.6,407.2 L539.8,405.3 L542.3,404.1 L545.0,404.7 L548.5,403.3 L549.7,404.5 L552.2,403.5 L556.8,404.2 L562.1,402.6 L563.9,403.8 L565.7,403.0 L567.7,403.6 L568.6,406.1 L571.3,407.2 L571.9,408.2 L570.5,410.0 L571.6,411.3 L568.5,413.1 L565.7,413.4 L568.4,417.2 L565.2,418.1 L566.8,421.5 L565.4,424.8 L565.5,426.9 L567.1,427.8 L567.8,430.0 L565.4,433.6 L568.8,432.7 L572.0,436.3 L574.8,437.1 L576.1,440.2 L579.3,441.7 L580.7,443.9 L579.4,448.5 L575.5,452.6 L574.6,456.9 L572.4,455.8 L568.8,455.9 L564.9,464.2 L563.0,466.0 L563.3,466.8 L557.8,470.5 L556.6,470.0 L556.5,472.2 L553.3,480.6 L555.6,484.9 L553.3,491.8 L550.3,490.2 L545.3,489.3 L543.3,490.3 L540.5,487.8 L536.0,490.3 L529.6,491.9 L529.1,491.7 L528.5,490.4 L528.1,489.0 L523.0,487.0 L523.1,485.0 L520.1,482.4 L518.6,482.8 L515.7,481.6 L511.4,483.7 L504.4,483.6 L502.7,485.2 L500.0,483.0 L498.1,483.7 L496.8,482.8 L497.0,481.7 Z"/>
    <path class="uz-map-region uz-map-region--kids" data-region="samarqand" fill="url(#grad-samarqand)" stroke="#d4a830" stroke-width="1.6" stroke-linejoin="round" d="M434.2,360.5 L435.7,363.4 L438.7,365.0 L439.7,370.6 L437.4,375.4 L440.7,380.7 L458.0,381.1 L460.7,380.6 L462.3,379.2 L466.4,379.9 L469.6,383.0 L472.0,386.7 L472.2,387.5 L472.4,387.7 L476.8,389.2 L478.3,388.3 L480.0,385.3 L480.9,385.3 L481.5,385.7 L481.8,385.9 L484.5,384.1 L487.2,386.5 L488.2,385.2 L491.6,384.8 L495.9,387.5 L497.1,385.7 L500.4,385.9 L502.4,383.4 L506.6,382.5 L507.8,382.5 L508.0,383.6 L509.3,384.1 L511.7,383.9 L513.3,385.2 L513.5,387.4 L512.3,389.0 L512.3,390.5 L513.5,389.7 L514.3,390.5 L519.1,390.9 L520.4,387.5 L522.0,387.2 L532.7,389.6 L539.2,388.7 L539.4,385.0 L538.2,384.0 L538.8,382.0 L535.7,379.1 L536.6,378.3 L539.0,378.7 L537.9,377.8 L538.2,376.4 L540.4,376.1 L539.3,375.7 L539.3,374.0 L538.8,373.6 L535.7,372.7 L536.1,370.0 L535.0,368.7 L542.0,364.6 L536.9,361.4 L536.0,360.3 L536.5,359.9 L536.2,359.7 L534.3,360.6 L528.6,360.1 L527.2,359.1 L526.0,359.8 L522.4,358.9 L521.7,356.7 L520.5,357.6 L519.6,356.8 L519.1,356.2 L519.1,356.1 L521.5,354.9 L520.2,351.9 L514.9,349.9 L517.8,346.8 L512.6,343.7 L513.0,342.6 L511.9,341.1 L512.8,340.1 L512.9,336.2 L513.6,335.0 L512.5,333.5 L513.0,332.6 L507.3,333.5 L505.6,332.2 L502.8,333.2 L502.3,332.2 L500.3,332.0 L499.3,329.7 L500.4,328.6 L498.8,328.1 L498.2,326.3 L497.1,326.0 L493.5,328.0 L489.6,327.9 L487.3,326.3 L487.1,326.3 L486.5,326.5 L484.4,326.5 L483.3,331.8 L483.6,332.5 L484.2,332.5 L484.2,332.7 L483.0,333.0 L482.2,334.4 L483.4,334.6 L482.9,336.2 L483.7,336.4 L479.5,348.3 L481.9,347.8 L481.9,348.2 L482.2,348.1 L482.3,348.4 L481.1,349.7 L481.3,351.7 L479.3,353.2 L476.9,354.5 L466.7,355.6 L465.8,354.7 L461.7,354.4 L458.8,353.1 L459.0,352.1 L457.9,350.8 L456.5,350.7 L452.7,347.8 L448.7,353.3 L450.8,354.6 L450.4,355.8 L450.2,355.8 L449.7,355.9 L449.4,355.8 L450.2,358.0 L449.6,360.8 L443.3,359.2 L440.9,361.5 L434.2,360.5 Z"/>
    <path class="uz-map-region uz-map-region--kids" data-region="jizzax" fill="url(#grad-jizzax)" stroke="#5aaeb8" stroke-width="1.6" stroke-linejoin="round" d="M502.2,302.4 L507.4,301.9 L507.1,300.9 L534.4,301.7 L543.5,299.7 L548.6,299.6 L550.9,299.0 L554.3,300.2 L556.7,301.3 L557.8,300.5 L561.1,300.6 L562.1,303.7 L561.9,306.6 L563.7,306.9 L563.7,306.0 L564.9,305.8 L566.2,303.9 L568.3,306.0 L565.1,307.4 L565.2,307.5 L565.7,307.4 L566.3,307.7 L566.6,309.3 L565.5,310.4 L566.4,310.6 L566.7,310.6 L566.9,310.9 L563.2,313.1 L562.9,314.5 L561.4,314.5 L561.6,315.9 L566.1,318.0 L573.7,323.5 L571.4,328.4 L571.4,328.4 L571.4,329.1 L570.7,328.5 L569.4,329.7 L569.1,330.8 L568.8,332.0 L571.3,332.5 L571.2,335.0 L571.2,335.0 L572.1,335.8 L566.8,340.7 L568.6,343.1 L573.6,343.1 L575.8,343.9 L581.9,343.1 L585.4,343.9 L591.3,343.3 L591.4,344.8 L591.4,345.4 L590.7,345.4 L590.1,345.4 L589.7,345.4 L590.5,348.1 L586.4,349.1 L586.4,349.1 L586.3,350.3 L586.3,350.3 L590.9,352.4 L608.1,348.6 L607.6,351.3 L605.3,352.0 L606.3,354.0 L603.0,352.8 L602.4,353.7 L600.8,353.6 L604.7,360.0 L602.3,362.6 L600.7,362.7 L600.7,359.9 L599.2,356.7 L598.3,357.5 L599.5,358.6 L599.7,361.3 L597.6,363.8 L597.1,362.1 L596.1,362.5 L596.5,363.5 L591.0,363.1 L591.3,366.8 L588.8,369.3 L590.5,370.7 L590.1,373.5 L586.6,376.1 L587.0,377.4 L586.0,378.6 L580.1,378.0 L579.1,378.7 L575.4,377.3 L571.6,377.6 L570.5,376.8 L567.8,377.3 L561.6,375.1 L559.9,375.4 L553.4,372.6 L552.0,373.4 L549.6,372.5 L547.1,373.6 L546.1,375.3 L541.2,376.4 L539.3,375.7 L539.3,374.0 L535.7,372.7 L536.1,370.0 L535.0,368.7 L542.0,364.6 L536.9,361.4 L536.0,360.3 L536.5,359.9 L536.2,359.7 L534.3,360.6 L528.6,360.1 L527.2,359.1 L526.0,359.8 L522.4,358.9 L521.7,356.7 L520.5,357.6 L519.6,356.8 L519.1,356.2 L519.1,356.1 L521.5,354.9 L520.2,351.9 L514.9,349.9 L517.8,346.8 L512.6,343.7 L513.0,342.6 L511.9,341.1 L512.8,340.1 L512.9,336.2 L513.6,335.0 L512.5,333.5 L513.0,332.6 L507.3,333.5 L505.6,332.2 L502.6,333.0 L503.3,329.2 L503.4,329.0 L503.8,328.8 L504.5,328.4 L504.6,326.7 L507.8,321.9 L507.8,316.5 L508.6,315.7 L508.3,315.0 L508.1,313.3 L508.0,312.8 L502.7,312.3 L502.4,306.4 L502.2,302.4 Z"/>
    <path class="uz-map-region uz-map-region--kids" data-region="sirdaryo" fill="url(#grad-sirdaryo)" stroke="#1EB53A" stroke-width="1.6" stroke-linejoin="round" d="M568.6,343.1 L573.6,343.1 L575.8,343.9 L581.9,343.1 L585.4,343.9 L591.3,343.3 L591.4,344.8 L591.4,345.4 L590.7,345.4 L590.1,345.4 L589.7,345.4 L590.5,348.1 L597.4,346.2 L597.5,346.5 L597.9,347.3 L598.2,347.7 L600.2,347.2 L601.1,345.9 L608.8,345.0 L614.8,345.8 L610.5,340.7 L610.6,336.9 L612.5,335.2 L611.0,332.7 L611.9,331.7 L610.1,331.8 L610.8,331.0 L610.6,328.6 L611.9,328.7 L610.9,327.7 L609.8,328.3 L611.1,326.8 L609.6,325.9 L609.5,325.0 L606.7,325.0 L607.4,323.8 L605.1,323.7 L605.0,321.8 L603.3,321.4 L601.9,318.3 L599.6,317.8 L599.6,316.7 L596.4,315.1 L595.1,315.2 L595.6,313.9 L594.1,314.6 L594.8,313.1 L590.6,309.5 L592.6,308.4 L590.2,307.7 L589.7,306.3 L587.6,307.5 L586.0,306.7 L584.8,309.1 L585.7,310.6 L587.1,310.4 L588.6,311.5 L589.0,314.3 L587.8,315.1 L587.7,315.5 L587.7,317.2 L588.7,318.4 L588.7,321.9 L591.3,322.6 L591.5,324.7 L590.4,325.6 L592.2,327.1 L588.6,328.6 L586.3,327.9 L584.1,328.5 L573.7,323.5 L571.4,328.4 L571.4,328.4 L571.4,329.1 L570.7,328.5 L569.1,330.8 L568.8,332.0 L571.3,332.5 L571.2,335.0 L571.2,335.0 L572.1,335.8 L566.8,340.7 L568.6,343.1 Z"/>
    <path class="uz-map-region uz-map-region--kids" data-region="toshkent" fill="url(#grad-toshkent)" stroke="#0099B5" stroke-width="1.6" stroke-linejoin="round" d="M612.6,295.0 L614.7,290.6 L617.6,288.6 L621.3,289.3 L622.5,290.6 L624.7,290.2 L625.4,291.2 L624.2,291.3 L622.7,293.0 L623.9,293.3 L624.7,296.1 L619.6,298.0 L620.5,299.3 L620.0,299.7 L619.7,299.8 L619.5,299.9 L615.2,299.0 L615.6,297.7 L613.8,294.3 L612.6,295.0 Z M617.1,296.1 L617.1,297.0 L618.0,296.5 L618.1,297.3 L618.1,297.4 L618.1,297.4 L618.9,297.1 L619.3,297.5 L621.5,296.3 L617.1,296.1 Z M591.2,310.5 L596.0,308.7 L596.4,307.3 L594.4,306.3 L598.5,302.1 L606.6,297.7 L607.2,296.3 L608.5,297.0 L608.1,295.9 L609.0,295.0 L607.8,293.8 L609.2,292.8 L609.3,291.0 L608.3,290.6 L610.7,289.6 L610.7,290.6 L611.5,290.5 L612.3,288.9 L614.1,289.2 L615.0,288.4 L613.8,287.0 L617.3,285.5 L620.4,286.8 L623.0,285.0 L627.6,285.4 L627.4,284.3 L624.9,283.3 L627.1,280.6 L629.5,281.4 L630.7,280.6 L631.7,280.3 L631.2,279.4 L634.8,275.8 L644.6,273.1 L648.1,273.4 L649.9,272.4 L651.7,268.9 L654.0,270.2 L654.0,269.2 L656.3,267.4 L659.6,266.5 L661.9,262.7 L666.7,260.8 L666.0,257.7 L668.4,256.2 L672.2,255.5 L673.1,254.3 L676.1,256.0 L676.7,258.4 L680.0,258.8 L682.4,253.7 L685.4,251.3 L684.7,250.8 L685.2,250.2 L687.1,249.5 L689.6,250.0 L693.8,246.9 L696.3,247.2 L697.6,245.4 L702.2,246.0 L705.5,248.7 L707.2,248.6 L708.2,249.7 L707.8,251.5 L706.2,252.8 L702.6,253.1 L700.7,255.0 L696.6,256.8 L696.0,258.1 L690.3,257.0 L689.1,259.6 L689.8,262.4 L688.9,263.3 L685.5,262.6 L685.3,263.8 L681.4,264.1 L679.8,266.6 L678.6,266.8 L678.5,268.3 L675.3,269.3 L673.9,273.1 L672.5,273.0 L669.4,274.8 L668.1,276.6 L663.6,278.5 L661.1,278.3 L661.3,279.5 L659.7,280.9 L659.3,282.9 L662.5,284.1 L665.3,282.7 L668.7,285.3 L669.9,285.1 L673.8,288.6 L672.7,291.0 L669.3,293.0 L669.0,294.9 L671.7,295.2 L670.8,296.5 L671.8,299.6 L671.9,300.0 L671.3,300.4 L674.9,303.1 L673.8,303.5 L672.8,305.8 L670.2,306.1 L668.4,307.7 L669.1,309.4 L668.3,310.5 L668.3,312.7 L664.5,313.9 L660.7,316.4 L659.0,315.8 L657.4,316.4 L656.8,318.1 L654.8,319.6 L642.5,322.2 L641.3,324.6 L639.3,325.7 L637.0,325.5 L636.2,323.7 L633.2,322.1 L631.9,319.0 L629.5,318.4 L629.1,316.9 L626.3,318.3 L625.4,319.8 L623.9,317.9 L622.7,318.7 L623.4,320.6 L621.8,322.1 L622.7,327.8 L618.9,328.3 L616.6,329.7 L619.7,332.3 L619.1,333.9 L620.7,338.3 L622.4,339.7 L620.9,342.5 L618.2,341.8 L618.9,343.6 L620.6,344.2 L620.1,345.2 L620.8,347.0 L614.6,345.8 L610.6,340.7 L610.6,336.9 L612.5,335.1 L611.0,332.7 L611.9,331.7 L610.1,331.8 L610.8,331.0 L610.6,328.6 L611.9,328.7 L610.9,327.7 L609.8,328.4 L611.3,327.2 L609.6,325.9 L609.9,325.3 L606.7,325.0 L607.5,323.8 L605.1,323.7 L605.0,321.8 L603.3,321.4 L601.9,318.3 L599.6,317.8 L599.6,316.7 L596.4,315.1 L595.1,315.2 L595.6,313.9 L594.1,314.6 L594.8,313.1 L591.2,310.5 Z M612.6,295.0 L614.7,290.6 L617.6,288.6 L621.3,289.3 L622.5,290.6 L624.7,290.2 L625.4,291.2 L624.2,291.3 L622.7,293.0 L623.9,293.3 L624.7,296.1 L619.6,298.0 L620.5,299.3 L620.0,299.7 L619.7,299.8 L619.5,299.9 L615.2,299.0 L615.6,297.7 L613.8,294.3 L612.6,295.0 Z M617.1,296.1 L617.1,297.0 L618.0,296.5 L618.1,297.3 L618.1,297.4 L618.1,297.4 L619.3,297.5 L621.5,296.3 L617.1,296.1 Z M628.1,288.3 L627.3,287.4 L626.3,288.5 L628.1,288.3 Z"/>
    <path class="uz-map-region uz-map-region--kids" data-region="namangan" fill="url(#grad-namangan)" stroke="#c47a9a" stroke-width="1.6" stroke-linejoin="round" d="M669.1,295.2 L669.3,293.0 L672.7,291.0 L673.9,288.6 L676.3,288.0 L678.2,285.8 L682.3,285.0 L683.7,285.3 L686.5,289.2 L686.0,295.0 L686.8,298.4 L687.4,296.7 L689.9,295.7 L694.8,299.9 L698.0,298.6 L702.0,300.9 L705.0,298.9 L706.0,299.7 L706.6,298.5 L708.4,299.4 L708.7,303.0 L711.9,301.3 L713.9,302.6 L716.4,300.2 L715.5,298.9 L716.8,297.5 L716.2,294.1 L719.3,293.0 L721.7,293.7 L724.7,291.3 L725.8,289.4 L725.3,288.6 L726.6,287.5 L725.8,286.0 L723.1,284.8 L726.2,283.8 L728.6,281.3 L729.3,282.2 L728.4,282.6 L729.0,282.9 L727.3,287.4 L728.4,287.4 L729.1,286.0 L729.8,286.9 L731.6,286.6 L733.6,290.7 L735.6,290.3 L735.8,292.1 L737.5,293.6 L734.7,298.1 L734.8,298.3 L735.1,298.4 L735.7,298.5 L735.7,298.6 L735.7,299.2 L735.8,299.7 L738.3,300.8 L741.1,300.3 L744.0,302.1 L745.6,300.4 L748.4,299.9 L747.3,301.2 L749.3,302.9 L750.2,306.2 L749.0,307.5 L748.0,307.2 L748.5,308.4 L749.1,308.0 L748.8,309.8 L746.3,312.9 L733.3,311.8 L730.0,312.6 L727.5,312.9 L721.8,316.0 L722.2,316.3 L720.6,317.6 L721.3,318.1 L721.7,318.8 L713.7,321.9 L708.7,326.5 L701.1,322.8 L700.3,321.2 L701.6,319.9 L702.0,319.5 L702.0,319.3 L695.4,319.4 L687.3,321.3 L686.5,319.9 L684.2,318.9 L683.1,317.4 L684.2,317.0 L683.5,316.3 L680.8,314.6 L676.5,308.8 L675.0,308.4 L672.8,305.8 L673.8,303.5 L674.9,303.1 L671.3,300.4 L671.9,300.0 L671.8,299.6 L670.8,296.5 L671.7,295.2 L669.1,295.2 Z M676.3,308.3 L678.4,308.9 L681.7,312.1 L677.0,307.5 L676.3,308.3 Z"/>
    <path class="uz-map-region uz-map-region--kids" data-region="andijon" fill="url(#grad-andijon)" stroke="#8878a8" stroke-width="1.6" stroke-linejoin="round" d="M721.7,318.8 L722.2,319.7 L718.4,320.6 L720.2,321.6 L722.2,324.7 L722.4,325.7 L724.1,324.1 L724.7,323.9 L724.3,321.2 L724.6,320.7 L725.0,320.5 L725.4,320.0 L726.5,321.1 L726.7,321.2 L726.7,321.4 L727.8,321.6 L728.8,321.9 L729.6,321.7 L736.6,325.9 L740.6,326.9 L744.9,326.2 L748.0,328.9 L749.8,328.7 L751.4,329.8 L750.5,330.9 L750.5,330.9 L750.8,332.7 L752.2,332.8 L751.7,333.8 L753.2,335.1 L755.2,334.5 L759.1,336.7 L760.5,333.2 L759.3,331.5 L757.7,331.1 L759.8,330.0 L759.6,329.0 L756.3,327.0 L759.2,326.2 L762.1,329.5 L762.5,329.2 L762.7,329.2 L763.4,329.0 L770.0,331.4 L770.7,330.8 L770.4,327.8 L771.8,327.2 L774.7,328.4 L774.2,326.7 L775.8,323.9 L778.6,323.6 L779.4,322.3 L778.9,321.7 L783.0,320.7 L785.0,319.2 L791.4,318.3 L792.0,316.7 L791.9,316.1 L791.9,315.9 L791.6,315.5 L786.2,315.2 L782.7,317.4 L778.0,314.8 L772.6,315.1 L767.2,314.2 L767.3,312.4 L765.4,309.7 L762.9,309.4 L763.2,308.4 L761.0,306.5 L758.2,306.4 L756.5,304.9 L752.4,307.5 L749.1,308.0 L748.8,309.8 L746.3,312.9 L733.3,311.8 L730.0,312.6 L727.5,312.9 L721.8,316.0 L722.2,316.3 L720.6,317.6 L721.3,318.1 L721.7,318.8 Z M775.4,323.4 L774.6,323.9 L775.4,323.4 Z"/>
    <path class="uz-map-region uz-map-region--kids" data-region="fargona" fill="url(#grad-fargona)" stroke="#d47868" stroke-width="1.6" stroke-linejoin="round" d="M666.5,333.9 L668.6,337.4 L677.7,339.7 L676.7,341.0 L678.4,344.4 L677.6,344.7 L679.9,347.5 L685.6,347.0 L691.6,344.9 L691.7,341.0 L696.4,340.6 L698.7,341.3 L701.8,339.9 L706.5,339.6 L707.5,340.1 L707.0,340.5 L708.5,339.5 L710.1,341.2 L712.7,340.7 L715.4,342.4 L718.6,342.7 L719.2,344.9 L721.4,345.6 L723.8,346.1 L723.9,343.2 L726.3,343.0 L727.8,346.3 L726.5,346.6 L728.3,347.6 L728.8,348.9 L731.3,346.2 L733.4,346.1 L733.8,343.8 L735.7,343.4 L738.3,344.6 L739.4,344.3 L738.6,343.7 L743.1,342.7 L739.4,340.6 L744.8,336.5 L744.7,334.3 L746.6,334.0 L748.6,332.1 L750.8,332.7 L750.5,330.9 L750.5,330.9 L750.8,330.6 L751.3,330.3 L751.4,330.2 L749.8,328.7 L747.9,328.8 L744.9,326.2 L740.6,326.9 L736.6,325.9 L729.6,321.7 L728.8,321.9 L727.8,321.6 L726.7,321.4 L726.7,321.2 L726.5,321.1 L725.4,320.0 L725.0,320.5 L724.6,320.7 L724.3,321.2 L724.7,323.9 L724.1,324.1 L722.4,325.7 L722.2,324.7 L720.2,321.6 L718.4,320.6 L722.2,319.7 L721.7,318.8 L713.7,321.9 L708.7,326.5 L701.1,322.8 L700.3,321.2 L701.6,319.9 L702.0,319.5 L702.0,319.3 L695.4,319.4 L686.4,321.4 L685.7,323.0 L684.3,323.0 L684.5,324.3 L683.2,324.1 L680.1,326.0 L677.9,328.7 L674.6,329.5 L673.3,331.9 L666.5,333.9 Z M696.6,352.3 L696.2,347.2 L699.0,347.8 L701.6,355.2 L705.1,354.4 L704.2,356.0 L702.8,356.0 L703.7,357.4 L702.3,358.2 L705.7,358.2 L705.2,359.1 L706.4,359.7 L705.4,361.2 L702.5,361.8 L701.7,359.8 L700.5,360.4 L700.8,361.9 L699.1,361.1 L698.8,360.5 L700.3,358.5 L701.6,358.0 L700.2,356.6 L701.4,356.4 L701.2,355.0 L697.5,353.6 L696.6,352.3 Z M725.7,346.3 L726.2,346.5 L725.7,346.3 Z M729.7,357.1 L731.6,355.7 L734.6,356.8 L734.0,358.6 L731.4,357.7 L729.5,359.3 L729.6,358.3 L728.2,358.4 L728.1,357.7 L729.7,357.1 Z"/>
    </g>
    <g class="uz-map-art" pointer-events="none">
    <g clip-path="url(#clip-qoraqalpogiston)" transform="translate(155.0,190.3)"><g opacity="0.38" fill="#1a7a9e"><ellipse cx="0" cy="4" rx="22" ry="10"/><path d="M18,-2 L28,4 L18,10 Z"/><circle cx="-6" cy="2" r="2" fill="#fff"/></g></g>
    <g clip-path="url(#clip-xorazm)" transform="translate(251.7,291.7)"><g opacity="0.36" fill="#8b6914"><rect x="-4" y="-18" width="8" height="36" rx="2"/><rect x="-10" y="8" width="20" height="6" rx="1"/><path d="M-6,-22 L6,-22 L0,-30 Z"/></g></g>
    <g clip-path="url(#clip-navoiy)" transform="translate(400.2,260.5)"><g opacity="0.38" fill="#5a8f4a"><path d="M-24,16 L-8,-20 L8,16 Z"/><path d="M-4,16 L12,-14 L28,16 Z" fill="#7aad6a"/></g></g>
    <g clip-path="url(#clip-buxoro)" transform="translate(371.5,347.4)"><g opacity="0.36" fill="#7a5a9e"><rect x="-14" y="0" width="28" height="16" rx="2"/><path d="M-16,0 Q0,-22 16,0" fill="#9a7abe"/><circle cx="0" cy="-8" r="3" fill="#e6821e"/></g></g>
    <g clip-path="url(#clip-qashqadaryo)" transform="translate(478.1,411.3)"><g opacity="0.36" fill="#b87820"><ellipse cx="0" cy="6" rx="20" ry="10"/><path d="M14,-4 Q22,-14 18,-2"/><circle cx="-10" cy="0" r="4"/></g></g>
    <g clip-path="url(#clip-surxondaryo)" transform="translate(538.7,450.8)"><g opacity="0.4" fill="#2e8a4f"><path d="M0,-20 C14,-10 14,10 0,20 C-14,10 -14,-10 0,-20 Z"/><path d="M0,-16 L0,16" stroke="#fff" stroke-width="1.5" fill="none"/></g></g>
    <g clip-path="url(#clip-samarqand)" transform="translate(492.0,364.0)"><g opacity="0.36" fill="#c4a030"><rect x="-18" y="4" width="10" height="18" rx="1"/><rect x="-4" y="-6" width="10" height="28" rx="1"/><rect x="10" y="2" width="10" height="20" rx="1"/></g></g>
    <g clip-path="url(#clip-jizzax)" transform="translate(548.6,338.5)"><g opacity="0.38" fill="#7a3a8a"><circle cx="-6" cy="0" r="5"/><circle cx="4" cy="-4" r="5"/><circle cx="4" cy="6" r="5"/><path d="M0,-12 L0,-22" stroke="#5a8f4a" stroke-width="2"/></g></g>
    <g clip-path="url(#clip-sirdaryo)" transform="translate(592.0,332.3)"><g opacity="0.38" fill="#c4a030"><path d="M-8,16 L-8,-12"/><path d="M0,16 L0,-16"/><path d="M8,16 L8,-10"/><ellipse cx="-8" cy="-14" rx="4" ry="8" fill="#e8c860"/><ellipse cx="0" cy="-18" rx="4" ry="8" fill="#e8c860"/><ellipse cx="8" cy="-12" rx="4" ry="8" fill="#e8c860"/></g></g>
    <g clip-path="url(#clip-toshkent)" transform="translate(641.2,295.9)"><g opacity="0.36" fill="#0099B5"><rect x="-16" y="-4" width="10" height="20" rx="1"/><rect x="-2" y="-14" width="12" height="30" rx="1"/><rect x="14" y="0" width="8" height="16" rx="1"/></g></g>
    <g clip-path="url(#clip-namangan)" transform="translate(707.7,305.8)"><g opacity="0.4" fill="#c45a8a"><circle cx="0" cy="0" r="6" fill="#e8a0c0"/><circle cx="-10" cy="-4" r="5"/><circle cx="10" cy="-4" r="5"/><circle cx="-8" cy="8" r="5"/><circle cx="8" cy="8" r="5"/></g></g>
    <g clip-path="url(#clip-andijon)" transform="translate(742.1,319.8)"><g opacity="0.38" fill="#6a5a8a"><path d="M-16,-14 L0,-18 L16,-14 L16,14 L0,18 L-16,14 Z"/><path d="M0,-18 L0,18" stroke="#fff" stroke-width="1.2" fill="none"/></g></g>
    <g clip-path="url(#clip-fargona)" transform="translate(708.5,334.4)"><g opacity="0.4" fill="#c0354a"><circle cx="0" cy="2" r="14"/><path d="M-4,-12 Q0,-20 4,-12" fill="#5a8f4a"/><circle cx="-4" cy="4" r="2" fill="#fff" opacity="0.5"/><circle cx="5" cy="0" r="2" fill="#fff" opacity="0.5"/></g></g>
    </g>
    
  </g>
  <g class="uz-map-frame-deco" pointer-events="none" opacity="0.35">
    <text x="24" y="36" font-family="Georgia,serif" font-size="14" fill="#7b3f00" font-weight="700">O'zbekiston</text>
    <text x="24" y="52" font-family="sans-serif" font-size="10" fill="#9a9080">Qadriyatlar xaritasi</text>
  </g>
</svg>