<svg xmlns="http://www.w3.org/2000/svg" viewBox="0 0 960 540" role="img" aria-label="O'zbekiston viloyatlari xaritasi">
  <defs>
    <linearGradient id="g-qoraqalpo" x1="0" y1="0" x2="1" y2="1"><stop offset="0%" stop-color="#7ec8e3"/><stop offset="100%" stop-color="#4a9ec4"/></linearGradient>
    <linearGradient id="g-xorazm" x1="0" y1="0" x2="0" y2="1"><stop offset="0%" stop-color="#d4a574"/><stop offset="100%" stop-color="#b8844a"/></linearGradient>
    <linearGradient id="g-navoiy" x1="0" y1="0" x2="1" y2="1"><stop offset="0%" stop-color="#f0d9a8"/><stop offset="100%" stop-color="#d4b06a"/></linearGradient>
    <linearGradient id="g-buxoro" x1="0" y1="0" x2="1" y2="1"><stop offset="0%" stop-color="#c9a0dc"/><stop offset="100%" stop-color="#9e6bb8"/></linearGradient>
    <linearGradient id="g-qashqadaryo" x1="0" y1="0" x2="0" y2="1"><stop offset="0%" stop-color="#f4a261"/><stop offset="100%" stop-color="#e76f51"/></linearGradient>
    <linearGradient id="g-surxondaryo" x1="0" y1="0" x2="1" y2="1"><stop offset="0%" stop-color="#90be6d"/><stop offset="100%" stop-color="#577945"/></linearGradient>
    <linearGradient id="g-samarqand" x1="0" y1="0" x2="1" y2="1"><stop offset="0%" stop-color="#ffd166"/><stop offset="100%" stop-color="#f4a261"/></linearGradient>
    <linearGradient id="g-jizzax" x1="0" y1="0" x2="0" y2="1"><stop offset="0%" stop-color="#a8dadc"/><stop offset="100%" stop-color="#6ba3a6"/></linearGradient>
    <linearGradient id="g-sirdaryo" x1="0" y1="0" x2="1" y2="0"><stop offset="0%" stop-color="#b8e0d2"/><stop offset="100%" stop-color="#7ec8a0"/></linearGradient>
    <linearGradient id="g-toshkent" x1="0" y1="0" x2="1" y2="1"><stop offset="0%" stop-color="#89c2d9"/><stop offset="100%" stop-color="#468faf"/></linearGradient>
    <linearGradient id="g-namangan" x1="0" y1="0" x2="0" y2="1"><stop offset="0%" stop-color="#f497b6"/><stop offset="100%" stop-color="#d94f7a"/></linearGradient>
    <linearGradient id="g-andijon" x1="0" y1="0" x2="1" y2="1"><stop offset="0%" stop-color="#cdb4db"/><stop offset="100%" stop-color="#9d7bb8"/></linearGradient>
    <linearGradient id="g-fargona" x1="0" y1="0" x2="0" y2="1"><stop offset="0%" stop-color="#ffcad4"/><stop offset="100%" stop-color="#f28482"/></linearGradient>
    <filter id="regionGlow" x="-20%" y="-20%" width="140%" height="140%">
      <feDropShadow dx="0" dy="2" stdDeviation="3" flood-color="#4a3320" flood-opacity="0.25"/>
    </filter>
  </defs>
  <!-- Fon: oq krem va yengil bulut -->
  <rect width="960" height="540" rx="24" fill="#fff9f0"/>
  <ellipse cx="480" cy="500" rx="420" ry="40" fill="#e8dcc8" opacity="0.5"/>
  <g opacity="0.15" fill="#2f86d6">
    <ellipse cx="120" cy="90" rx="70" ry="28"/><ellipse cx="820" cy="70" rx="90" ry="32"/><ellipse cx="650" cy="110" rx="60" ry="22"/>
  </g>
  <!-- Viloyatlar -->
  <g class="uz-regions" filter="url(#regionGlow)">
    <path class="uz-region" data-region="qoraqalpogiston" fill="url(#g-qoraqalpo)" stroke="#3d2818" stroke-width="2.2" stroke-linejoin="round"
      d="M48,52 L248,38 L298,118 L278,198 L188,248 L78,218 L38,148 Z"/>
    <path class="uz-region" data-region="xorazm" fill="url(#g-xorazm)" stroke="#3d2818" stroke-width="2.2" stroke-linejoin="round"
      d="M248,38 L358,48 L378,168 L328,248 L228,248 L188,198 L198,118 Z"/>
    <path class="uz-region" data-region="navoiy" fill="url(#g-navoiy)" stroke="#3d2818" stroke-width="2.2" stroke-linejoin="round"
      d="M358,48 L498,58 L518,168 L488,298 L368,318 L328,248 L378,168 Z"/>
    <path class="uz-region" data-region="buxoro" fill="url(#g-buxoro)" stroke="#3d2818" stroke-width="2.2" stroke-linejoin="round"
      d="M228,248 L328,248 L368,318 L348,408 L248,428 L188,358 L188,278 Z"/>
    <path class="uz-region" data-region="qashqadaryo" fill="url(#g-qashqadaryo)" stroke="#3d2818" stroke-width="2.2" stroke-linejoin="round"
      d="M368,318 L488,298 L528,388 L498,468 L388,488 L348,408 Z"/>
    <path class="uz-region" data-region="surxondaryo" fill="url(#g-surxondaryo)" stroke="#3d2818" stroke-width="2.2" stroke-linejoin="round"
      d="M528,388 L628,368 L688,428 L648,508 L528,498 L498,468 Z"/>
    <path class="uz-region" data-region="samarqand" fill="url(#g-samarqand)" stroke="#3d2818" stroke-width="2.2" stroke-linejoin="round"
      d="M488,298 L588,278 L628,368 L528,388 L488,298 Z"/>
    <path class="uz-region" data-region="jizzax" fill="url(#g-jizzax)" stroke="#3d2818" stroke-width="2.2" stroke-linejoin="round"
      d="M518,168 L618,148 L648,228 L588,278 L488,298 L518,168 Z"/>
    <path class="uz-region" data-region="sirdaryo" fill="url(#g-sirdaryo)" stroke="#3d2818" stroke-width="2.2" stroke-linejoin="round"
      d="M618,148 L718,128 L748,208 L648,228 Z"/>
    <path class="uz-region" data-region="toshkent" fill="url(#g-toshkent)" stroke="#3d2818" stroke-width="2.2" stroke-linejoin="round"
      d="M648,228 L748,208 L798,268 L768,338 L668,328 L648,228 Z"/>
    <path class="uz-region" data-region="namangan" fill="url(#g-namangan)" stroke="#3d2818" stroke-width="2.2" stroke-linejoin="round"
      d="M748,208 L848,188 L878,268 L828,338 L768,338 L798,268 Z"/>
    <path class="uz-region" data-region="andijon" fill="url(#g-andijon)" stroke="#3d2818" stroke-width="2.2" stroke-linejoin="round"
      d="M848,188 L928,178 L948,258 L908,328 L828,338 L878,268 Z"/>
    <path class="uz-region" data-region="fargona" fill="url(#g-fargona)" stroke="#3d2818" stroke-width="2.2" stroke-linejoin="round"
      d="M768,338 L828,338 L908,328 L898,408 L808,428 L728,398 L668,328 Z"/>
  </g>
  <!-- Yorliqlar -->
  <g class="uz-labels" font-family="Quicksand, sans-serif" font-size="11" font-weight="700" fill="#3d1500" pointer-events="none">
    <text x="148" y="145" text-anchor="middle">Qoraqalpog'iston</text>
    <text x="288" y="155" text-anchor="middle">Xorazm</text>
    <text x="428" y="195" text-anchor="middle">Navoiy</text>
    <text x="268" y="345" text-anchor="middle">Buxoro</text>
    <text x="438" y="405" text-anchor="middle">Qashqadaryo</text>
    <text x="598" y="445" text-anchor="middle">Surxondaryo</text>
    <text x="558" y="335" text-anchor="middle">Samarqand</text>
    <text x="568" y="235" text-anchor="middle">Jizzax</text>
    <text x="688" y="185" text-anchor="middle">Sirdaryo</text>
    <text x="718" y="285" text-anchor="middle">Toshkent</text>
    <text x="818" y="255" text-anchor="middle">Namangan</text>
    <text x="898" y="255" text-anchor="middle">Andijon</text>
    <text x="808" y="385" text-anchor="middle">Farg'ona</text>
  </g>
  <!-- Bezak: quyosh va yulduz -->
  <circle cx="880" cy="48" r="22" fill="#ffd166" stroke="#e6821e" stroke-width="2"/>
  <g stroke="#e6821e" stroke-width="2" stroke-linecap="round">
    <line x1="880" y1="14" x2="880" y2="6"/><line x1="880" y1="82" x2="880" y2="90"/>
    <line x1="846" y1="48" x2="838" y2="48"/><line x1="914" y1="48" x2="922" y2="48"/>
    <line x1="856" y1="24" x2="850" y2="18"/><line x1="904" y1="72" x2="910" y2="78"/>
    <line x1="904" y1="24" x2="910" y2="18"/><line x1="856" y1="72" x2="850" y2="78"/>
  </g>
</svg>
